# xmcd
#
# Track frame offsets:
#	150
#	18247
#	34867
#	46292
#	59250
#	71805
#	86507
#	97232
#	112029
#	126279
#	141280
#	159472
#	174307
#	187595
#	200227
#
# Disc length: 2800 seconds
#
# Revision: 0
# Processed by: cddbd v1.5PL3 Copyright (c) Steve Scherf et al.
# Submitted via: dBpowerAMP V4.0
#
DISCID=d40aee0f
DTITLE=Varios - 15 Exitos Tejanos
DYEAR=1900
DGENRE=Latin
TTITLE0=El Pintor
TTITLE1=Tres Ramitas
TTITLE2=Somos Dos Gatos
TTITLE3=Frijolitos Pintos
TTITLE4=El Venadito
TTITLE5=Chulita
TTITLE6=Me Importa Muy Poco
TTITLE7=Se me Hizo Fácil
TTITLE8=Firma este Papel
TTITLE9=Sexo Débil
TTITLE10=Lastima Que Seas Ajena
TTITLE11=Bajo Sexto y Acordeón
TTITLE12=Niña Mujer
TTITLE13=Pídeme la Luna
TTITLE14=Mi Humilde Corazón
EXTD=
EXTT0=
EXTT1=
EXTT2=
EXTT3=
EXTT4=
EXTT5=
EXTT6=
EXTT7=
EXTT8=
EXTT9=
EXTT10=
EXTT11=
EXTT12=
EXTT13=
EXTT14=
PLAYORDER=
